<!-- Generated by IcoMoon.io -->
<svg version="1.1" xmlns="http://www.w3.org/2000/svg" width="1024" height="1024" viewBox="0 0 1024 1024">
<title></title>
<g id="icomoon-ignore">
</g>
<path fill="#007acc" d="M12 511.28v500h1000v-1000h-1000zM817.84 471.28c24.842 5.893 46.141 18.563 62.501 35.937l0.059 0.063c9.006 9.365 16.953 19.859 23.578 31.218l0.422 0.782c0 1.28-43.2 30.48-69.52 46.8-0.96 0.64-4.8-3.52-9.040-9.84-9.649-16.431-26.934-27.47-46.854-28.237l-0.106-0.003c-30.32-2.080-49.84 13.84-49.68 40-0.017 0.42-0.027 0.914-0.027 1.409 0 6.339 1.61 12.302 4.443 17.503l-0.096-0.192c6.64 13.84 19.040 22.080 57.92 38.88 71.6 30.8 102.24 51.12 121.28 80 21.28 32 26 83.68 11.6 121.92-16 41.6-55.2 69.84-110.64 79.2-10.47 1.268-22.593 1.991-34.885 1.991-14.556 0-28.876-1.015-42.891-2.977l1.616 0.185c-40.224-6.795-75.156-25.798-101.725-53.004l-0.035-0.036c-9.2-10.16-27.12-36.64-26-38.56 2.656-1.994 5.664-3.929 8.809-5.645l0.391-0.195 37.040-20.48 28.72-16.64 6 8.88c10.242 14.529 22.853 26.63 37.39 36l0.53 0.32c32 16.8 75.68 14.48 97.28-4.96 8.026-7.887 12.999-18.858 12.999-30.99 0-9.097-2.796-17.54-7.576-24.518l0.096 0.148c-8-11.12-24-20.48-68.72-40-51.6-22.24-73.84-36-94.16-57.92-12.256-13.921-21.687-30.648-27.2-49.067l-0.24-0.933c-2.247-11.253-3.533-24.19-3.533-37.427 0-9.371 0.644-18.591 1.891-27.619l-0.118 1.046c10.64-49.84 48-84.64 102.56-94.96 9.339-1.22 20.139-1.917 31.102-1.917 15.841 0 31.343 1.454 46.379 4.237l-1.56-0.24zM583.12 513.2v40.96h-129.84v369.84h-92.080v-369.92h-130.16v-40c-0.108-3.445-0.17-7.496-0.17-11.561 0-10.487 0.41-20.878 1.216-31.159l-0.086 1.36c0.64-0.72 80-0.72 176-0.72h174.64z"></path>
</svg>
